<svg width="32" height="32" viewBox="0 0 32 32" fill="none" xmlns="http://www.w3.org/2000/svg">
<path d="M29.0743 13.3887H28.0003V13.3333H16.0003V18.6667H23.5357C22.4363 21.7713 19.4823 24 16.0003 24C11.5823 24 8.00033 20.418 8.00033 16C8.00033 11.582 11.5823 7.99999 16.0003 7.99999C18.0397 7.99999 19.895 8.76932 21.3077 10.026L25.079 6.25466C22.6977 4.03532 19.5123 2.66666 16.0003 2.66666C8.63699 2.66666 2.66699 8.63666 2.66699 16C2.66699 23.3633 8.63699 29.3333 16.0003 29.3333C23.3637 29.3333 29.3337 23.3633 29.3337 16C29.3337 15.106 29.2417 14.2333 29.0743 13.3887Z" fill="#FFC107"/>
<path d="M4.2041 9.79399L8.58477 13.0067C9.7701 10.072 12.6408 7.99999 16.0001 7.99999C18.0394 7.99999 19.8948 8.76932 21.3074 10.026L25.0788 6.25466C22.6974 4.03532 19.5121 2.66666 16.0001 2.66666C10.8788 2.66666 6.43743 5.55799 4.2041 9.79399Z" fill="#FF3D00"/>
<path d="M15.9999 29.3333C19.4439 29.3333 22.5732 28.0153 24.9392 25.872L20.8125 22.38C19.4289 23.4323 17.7382 24.0014 15.9999 24C12.5319 24 9.58722 21.7887 8.47788 18.7027L4.12988 22.0527C6.33655 26.3707 10.8179 29.3333 15.9999 29.3333Z" fill="#4CAF50"/>
<path d="M29.074 13.3887H28V13.3333H16V18.6667H23.5353C23.0095 20.1443 22.0622 21.4355 20.8107 22.3807L20.8127 22.3793L24.9393 25.8713C24.6473 26.1367 29.3333 22.6667 29.3333 16C29.3333 15.106 29.2413 14.2333 29.074 13.3887Z" fill="#1976D2"/>
</svg>
